<svg width="800" height="800" viewBox="0 0 800 800" fill="none" xmlns="http://www.w3.org/2000/svg">
<path d="M550 284.667C550 321.487 520.153 351.333 483.333 351.333C446.513 351.333 416.667 321.487 416.667 284.667C416.667 247.848 446.513 218 483.333 218C520.153 218 550 247.848 550 284.667Z" fill="white"/>
<path d="M318.627 118L283.333 51.3333H116.667C79.8477 51.3333 50 81.181 50 118V651.333C50 688.153 79.8477 718 116.667 718H650C686.82 718 716.667 688.153 716.667 651.333V484.667L650 449.373V651.333H116.667V118H318.627Z" fill="white"/>
<path d="M714.897 416.993C737.23 377.997 749.993 332.823 749.993 284.667C749.993 137.391 630.603 18 483.327 18C435.17 18 389.997 30.765 351 53.0957L384.083 110.988C413.327 94.2403 447.21 84.6667 483.327 84.6667C593.783 84.6667 683.327 174.21 683.327 284.667C683.327 320.783 673.753 354.667 657.007 383.91L714.897 416.993Z" fill="white"/>
<path d="M628.06 367.37C642.017 343 649.993 314.764 649.993 284.667C649.993 192.619 575.373 118 483.327 118C453.23 118 424.993 125.978 400.623 139.935L433.703 197.828C448.327 189.454 465.267 184.667 483.327 184.667C538.557 184.667 583.327 229.438 583.327 284.667C583.327 302.725 578.54 319.667 570.167 334.29L628.06 367.37Z" fill="white"/>
<path d="M142 601.582V492.491H187.064C195.232 492.491 202.281 493.965 208.211 496.913C214.177 499.825 218.776 504.015 222.007 509.484C225.239 514.917 226.854 521.362 226.854 528.82C226.854 536.383 225.203 542.811 221.901 548.102C218.598 553.358 213.911 557.371 207.838 560.141C201.766 562.875 194.575 564.242 186.265 564.242H157.767V543.468H181.364C185.342 543.468 188.662 542.953 191.325 541.923C194.024 540.858 196.066 539.26 197.451 537.129C198.836 534.963 199.528 532.193 199.528 528.82C199.528 525.446 198.836 522.658 197.451 520.457C196.066 518.219 194.024 516.55 191.325 515.45C188.626 514.313 185.306 513.745 181.364 513.745H168.367V601.582H142ZM203.417 551.724L230.583 601.582H201.819L175.185 551.724H203.417ZM244.317 601.582V492.491H318.784V513.905H270.684V536.277H314.043V557.744H270.684V601.582H244.317ZM335.061 601.582V492.491H361.428V580.169H406.812V601.582H335.061ZM522.178 547.037C522.178 559.04 519.87 569.214 515.254 577.559C510.637 585.904 504.387 592.243 496.504 596.575C488.656 600.907 479.849 603.073 470.083 603.073C460.282 603.073 451.458 600.89 443.61 596.522C435.762 592.154 429.529 585.815 424.913 577.506C420.332 569.16 418.041 559.004 418.041 547.037C418.041 535.034 420.332 524.86 424.913 516.515C429.529 508.17 435.762 501.831 443.61 497.499C451.458 493.166 460.282 491 470.083 491C479.849 491 488.656 493.166 496.504 497.499C504.387 501.831 510.637 508.17 515.254 516.515C519.87 524.86 522.178 535.034 522.178 547.037ZM495.225 547.037C495.225 539.935 494.213 533.933 492.189 529.033C490.2 524.132 487.324 520.421 483.56 517.9C479.831 515.379 475.339 514.118 470.083 514.118C464.863 514.118 460.371 515.379 456.607 517.9C452.843 520.421 449.948 524.132 447.924 529.033C445.936 533.933 444.941 539.935 444.941 547.037C444.941 554.139 445.936 560.141 447.924 565.041C449.948 569.942 452.843 573.653 456.607 576.174C460.371 578.695 464.863 579.956 470.083 579.956C475.339 579.956 479.831 578.695 483.56 576.174C487.324 573.653 490.2 569.942 492.189 565.041C494.213 560.141 495.225 554.139 495.225 547.037ZM532.023 513.905V492.491H624.229V513.905H591.15V601.582H565.155V513.905H532.023Z" fill="white"/>
</svg>
