<svg width="800" height="800" viewBox="0 0 800 800" fill="none" xmlns="http://www.w3.org/2000/svg">
<path d="M550 284.667C550 321.487 520.153 351.333 483.333 351.333C446.513 351.333 416.667 321.487 416.667 284.667C416.667 247.848 446.513 218 483.333 218C520.153 218 550 247.848 550 284.667Z" fill="white"/>
<path d="M318.627 118L283.333 51.3333H116.667C79.8477 51.3333 50 81.181 50 118V651.333C50 688.153 79.8477 718 116.667 718H650C686.82 718 716.667 688.153 716.667 651.333V484.667L650 449.373V651.333H116.667V118H318.627Z" fill="white"/>
<path d="M714.897 416.993C737.23 377.997 749.993 332.823 749.993 284.667C749.993 137.391 630.603 18 483.327 18C435.17 18 389.997 30.765 351 53.0957L384.083 110.988C413.327 94.2403 447.21 84.6667 483.327 84.6667C593.783 84.6667 683.327 174.21 683.327 284.667C683.327 320.783 673.753 354.667 657.007 383.91L714.897 416.993Z" fill="white"/>
<path d="M628.06 367.37C642.017 343 649.993 314.764 649.993 284.667C649.993 192.619 575.373 118 483.327 118C453.23 118 424.993 125.978 400.623 139.935L433.703 197.828C448.327 189.454 465.267 184.667 483.327 184.667C538.557 184.667 583.327 229.438 583.327 284.667C583.327 302.725 578.54 319.667 570.167 334.29L628.06 367.37Z" fill="white"/>
</svg>
