<svg width="800" height="800" viewBox="0 0 800 800" fill="none" xmlns="http://www.w3.org/2000/svg">
<rect width="800" height="800" fill="none"/>
<path d="M566.667 300C566.667 336.82 536.82 366.667 500 366.667C463.18 366.667 433.333 336.82 433.333 300C433.333 263.181 463.18 233.333 500 233.333C536.82 233.333 566.667 263.181 566.667 300Z" fill="#00529B"/>
<path d="M335.293 133.333L300 66.6667H133.333C96.5144 66.6667 66.6667 96.5144 66.6667 133.333V666.667C66.6667 703.487 96.5144 733.333 133.333 733.333H666.667C703.487 733.333 733.333 703.487 733.333 666.667V500L666.667 464.707V666.667H133.333V133.333H335.293Z" fill="#00529B"/>
<path d="M731.563 432.327C753.897 393.33 766.66 348.157 766.66 300C766.66 152.724 647.27 33.3333 499.993 33.3333C451.837 33.3333 406.663 46.0983 367.667 68.429L400.75 126.322C429.993 109.574 463.877 100 499.993 100C610.45 100 699.993 189.543 699.993 300C699.993 336.117 690.42 370 673.673 399.243L731.563 432.327Z" fill="#00529B"/>
<path d="M644.727 382.703C658.683 358.333 666.66 330.098 666.66 300C666.66 207.953 592.04 133.333 499.993 133.333C469.897 133.333 441.66 141.311 417.29 155.268L450.37 213.161C464.993 204.787 481.933 200 499.993 200C555.223 200 599.993 244.772 599.993 300C599.993 318.059 595.207 335 586.833 349.623L644.727 382.703Z" fill="#00529B"/>
<path d="M159 610.582V501.491H204.064C212.232 501.491 219.281 502.965 225.211 505.913C231.177 508.825 235.776 513.015 239.007 518.484C242.239 523.917 243.854 530.362 243.854 537.82C243.854 545.383 242.203 551.811 238.901 557.102C235.598 562.358 230.911 566.371 224.838 569.141C218.766 571.875 211.575 573.242 203.265 573.242H174.767V552.468H198.364C202.342 552.468 205.662 551.953 208.325 550.923C211.024 549.858 213.066 548.26 214.451 546.129C215.836 543.963 216.528 541.193 216.528 537.82C216.528 534.446 215.836 531.658 214.451 529.457C213.066 527.219 211.024 525.55 208.325 524.45C205.626 523.313 202.306 522.745 198.364 522.745H185.367V610.582H159ZM220.417 560.724L247.583 610.582H218.819L192.185 560.724H220.417ZM261.317 610.582V501.491H335.784V522.905H287.684V545.277H331.043V566.744H287.684V610.582H261.317ZM352.061 610.582V501.491H378.428V589.169H423.812V610.582H352.061ZM539.178 556.037C539.178 568.04 536.87 578.214 532.254 586.559C527.637 594.904 521.387 601.243 513.504 605.575C505.656 609.907 496.849 612.073 487.083 612.073C477.282 612.073 468.458 609.89 460.61 605.522C452.762 601.154 446.529 594.815 441.913 586.506C437.332 578.16 435.041 568.004 435.041 556.037C435.041 544.034 437.332 533.86 441.913 525.515C446.529 517.17 452.762 510.831 460.61 506.499C468.458 502.166 477.282 500 487.083 500C496.849 500 505.656 502.166 513.504 506.499C521.387 510.831 527.637 517.17 532.254 525.515C536.87 533.86 539.178 544.034 539.178 556.037ZM512.225 556.037C512.225 548.935 511.213 542.933 509.189 538.033C507.2 533.132 504.324 529.421 500.56 526.9C496.831 524.379 492.339 523.118 487.083 523.118C481.863 523.118 477.371 524.379 473.607 526.9C469.843 529.421 466.948 533.132 464.924 538.033C462.936 542.933 461.941 548.935 461.941 556.037C461.941 563.139 462.936 569.141 464.924 574.041C466.948 578.942 469.843 582.653 473.607 585.174C477.371 587.695 481.863 588.956 487.083 588.956C492.339 588.956 496.831 587.695 500.56 585.174C504.324 582.653 507.2 578.942 509.189 574.041C511.213 569.141 512.225 563.139 512.225 556.037ZM549.023 522.905V501.491H641.229V522.905H608.15V610.582H582.155V522.905H549.023Z" fill="#00529B"/>
</svg>
